<svg xmlns="http://www.w3.org/2000/svg" version="1.1" xmlns:xlink="http://www.w3.org/1999/xlink" xmlns:svgjs="http://svgjs.dev/svgjs" width="1000" height="1000" viewBox="0 0 1000 1000"><rect width="1000" height="1000" fill="#755bb4"></rect><g transform="matrix(0.7,0,0,0.7,149.57575757575756,282.1265587044535)"><svg viewBox="0 0 396 247" data-background-color="#755bb4" preserveAspectRatio="xMidYMid meet" height="623" width="1000" xmlns="http://www.w3.org/2000/svg" xmlns:xlink="http://www.w3.org/1999/xlink"><g id="tight-bounds" transform="matrix(1,0,0,1,0.2400000000000091,-0.09999999999999432)"><svg viewBox="0 0 395.52 247.2" height="247.2" width="395.52"><g><svg></svg></g><g><svg viewBox="0 0 395.52 247.2" height="247.2" width="395.52"><g transform="matrix(1,0,0,1,75.54432,72.71189044037645)"><svg viewBox="0 0 244.43135999999998 101.77621911924709" height="101.77621911924709" width="244.43135999999998"><g><svg viewBox="0 0 244.43135999999998 101.77621911924709" height="101.77621911924709" width="244.43135999999998"><g><svg viewBox="0 0 500.5166762118134 208.4049072548251" height="101.77621911924709" width="244.43135999999998"><g transform="matrix(1,0,0,1,256.0853162118134,0)"><svg viewBox="0 0 244.43135999999998 208.4049072548251" height="208.4049072548251" width="244.43135999999998"><g><svg viewBox="0 0 244.43135999999998 208.4049072548251" height="208.4049072548251" width="244.43135999999998" id="textblock"><g><svg viewBox="0 0 244.43135999999998 124.94893801916932" height="124.94893801916932" width="244.43135999999998"><g transform="matrix(1,0,0,1,0,0)"><svg width="244.43135999999998" viewBox="2.549999952316284 -36.5 93.88999938964844 48" height="124.94893801916932" data-palette-color="#bb84e8"><path d="M11.1-23.85L11.1-23.85Q4.4-23.85 4.4-18.85L4.4-18.85Q4.4-16.5 5.8-15.53 7.2-14.55 12-13.8 16.8-13.05 18.7-11.8 20.6-10.55 20.6-6.78 20.6-3 18.2-1.28 15.8 0.45 11.1 0.45L11.1 0.45Q8.55 0.45 4.3-0.15L4.3-0.15 2.85-0.35 3.05-2Q8.45-1.15 11.65-1.15 14.85-1.15 16.8-2.4 18.75-3.65 18.75-6.65 18.75-9.65 17.23-10.6 15.7-11.55 10.98-12.28 6.25-13 4.4-14.23 2.55-15.45 2.55-18.35 2.55-21.25 3.9-22.83 5.25-24.4 7.05-24.93 8.85-25.45 10.8-25.45L10.8-25.45Q14.85-25.45 18.4-24.9L18.4-24.9 19.7-24.7 19.6-23.05Q14.5-23.85 11.1-23.85ZM39.3-25L39.3-23.4 30.2-23.4 30.2-10.3Q30.2-4.55 31.02-2.83 31.85-1.1 34.8-1.1L34.8-1.1 39.7-1.5 39.85 0.1Q36.55 0.5 34.8 0.5L34.8 0.5Q31.25 0.5 29.85-1.33 28.45-3.15 28.45-8.4L28.45-8.4 28.45-23.4 24.5-23.4 24.5-25 28.45-25 28.45-33.15 30.2-33.15 30.2-25 39.3-25ZM49.45 0L41.7-25 43.55-25 50.9-1.6 52.95-1.6 60.35-25 62.2-25 50.75 11.5 48.9 11.5 52.5 0 49.45 0ZM69.69 0L67.94 0 67.94-36.5 69.69-36.5 69.69 0ZM93.89-1.5L93.89-1.5 95.39-1.6 95.49 0Q89.89 0.45 86.24 0.45L86.24 0.45Q80.94 0.4 78.89-2.78 76.84-5.95 76.84-12.5L76.84-12.5Q76.84-25.45 86.94-25.45L86.94-25.45Q91.69-25.45 94.07-22.6 96.44-19.75 96.44-13.45L96.44-13.45 96.44-11.8 78.69-11.8Q78.69-6.4 80.39-3.78 82.09-1.15 86.04-1.15 89.99-1.15 93.89-1.5ZM78.69-13.4L78.69-13.4 94.59-13.4Q94.59-19.05 92.77-21.45 90.94-23.85 86.94-23.85L86.94-23.85Q78.69-23.85 78.69-13.4Z" opacity="1" transform="matrix(1,0,0,1,0,0)" fill="#bb84e8" class="undefined-text-0" data-fill-palette-color="primary" id="text-0"></path></svg></g></svg></g><g transform="matrix(1,0,0,1,0,154.44638351098274)"><svg viewBox="0 0 244.43135999999998 53.95852374384236" height="53.95852374384236" width="244.43135999999998"><g transform="matrix(1,0,0,1,0,0)"><svg width="244.43135999999998" viewBox="1.399999976158142 -35.349998474121094 162.3800048828125 35.849998474121094" height="53.95852374384236" data-palette-color="#35185a"><path d="M11.2 0.5L11.2 0.5Q8.45 0.5 6.23-0.88 4-2.25 2.7-4.55 1.4-6.85 1.4-9.7L1.4-9.7 1.45-25.3Q1.45-28.05 2.73-30.33 4-32.6 6.23-33.98 8.45-35.35 11.2-35.35L11.2-35.35Q13.95-35.35 16.15-34 18.35-32.65 19.65-30.38 20.95-28.1 20.95-25.3L20.95-25.3 20.95-23Q20.95-22.8 20.75-22.8L20.75-22.8 15.15-22.8Q14.95-22.8 14.95-23L14.95-23 14.95-25.3Q14.95-26.95 13.88-28.15 12.8-29.35 11.2-29.35L11.2-29.35Q9.4-29.35 8.45-28.13 7.5-26.9 7.5-25.3L7.5-25.3 7.5-9.7Q7.5-7.85 8.58-6.7 9.65-5.55 11.2-5.55L11.2-5.55Q12.8-5.55 13.88-6.83 14.95-8.1 14.95-9.7L14.95-9.7 14.95-12Q14.95-12.2 15.15-12.2L15.15-12.2 20.8-12.2Q21-12.2 21-12L21-12 21-9.7Q21-6.85 19.68-4.55 18.35-2.25 16.15-0.88 13.95 0.5 11.2 0.5ZM33.9 0.5L33.9 0.5Q31.2 0.5 28.97-0.88 26.75-2.25 25.4-4.53 24.05-6.8 24.05-9.55L24.05-9.55 24.1-25.4Q24.1-28.15 25.42-30.4 26.75-32.65 29-34 31.25-35.35 33.9-35.35L33.9-35.35Q36.6-35.35 38.8-34 41-32.65 42.32-30.4 43.65-28.15 43.65-25.4L43.65-25.4 43.7-9.55Q43.7-6.8 42.37-4.53 41.05-2.25 38.82-0.88 36.6 0.5 33.9 0.5ZM33.9-5.55L33.9-5.55Q35.4-5.55 36.52-6.78 37.65-8 37.65-9.55L37.65-9.55 37.6-25.4Q37.6-27.05 36.55-28.2 35.5-29.35 33.9-29.35L33.9-29.35Q32.35-29.35 31.25-28.23 30.15-27.1 30.15-25.4L30.15-25.4 30.15-9.55Q30.15-7.9 31.25-6.73 32.35-5.55 33.9-5.55ZM56.7-0.05L47.75 0Q47.5 0 47.5-0.25L47.5-0.25 47.6-34.6Q47.6-34.8 47.8-34.8L47.8-34.8 57.15-34.85Q59.9-34.9 62.17-33.55 64.45-32.2 65.8-29.93 67.15-27.65 67.15-24.9L67.15-24.9 67.15-10.55Q67.15-7.65 65.75-5.28 64.34-2.9 62-1.5 59.65-0.1 56.7-0.05L56.7-0.05ZM53.65-28.8L53.6-6.15 56.7-6.15Q58.55-6.15 59.82-7.45 61.1-8.75 61.1-10.55L61.1-10.55 61.1-24.95Q61.1-26.55 59.92-27.73 58.75-28.9 57.15-28.85L57.15-28.85 53.65-28.8ZM76.99 0L71.34 0Q71.09 0 71.09-0.25L71.09-0.25 71.14-34.6Q71.14-34.8 71.34-34.8L71.34-34.8 76.94-34.8Q77.14-34.8 77.14-34.6L77.14-34.6 77.19-0.25Q77.19 0 76.99 0L76.99 0ZM87.04 0L82.04 0Q81.64 0 81.64-0.35L81.64-0.35 81.59-34.4Q81.59-34.8 81.99-34.8L81.99-34.8 86.49-34.8 94.94-15.1 94.69-34.4Q94.69-34.8 95.14-34.8L95.14-34.8 100.09-34.8Q100.39-34.8 100.39-34.4L100.39-34.4 100.44-0.3Q100.44 0 100.19 0L100.19 0 95.79 0 87.14-18.4 87.49-0.4Q87.49 0 87.04 0L87.04 0ZM113.94 0.5L113.94 0.5Q111.24 0.5 109.04-0.85 106.84-2.2 105.51-4.48 104.19-6.75 104.19-9.55L104.19-9.55 104.19-25.4Q104.19-28.1 105.51-30.38 106.84-32.65 109.06-34 111.29-35.35 113.94-35.35L113.94-35.35Q116.69-35.35 118.91-34.02 121.14-32.7 122.44-30.45 123.74-28.2 123.74-25.4L123.74-25.4 123.74-23.1Q123.74-22.9 123.49-22.9L123.49-22.9 117.89-22.9Q117.69-22.9 117.69-23.1L117.69-23.1 117.69-25Q117.69-26.9 116.61-28.15 115.54-29.4 113.94-29.4L113.94-29.4Q112.49-29.4 111.36-28.2 110.24-27 110.24-25.4L110.24-25.4 110.24-9.55Q110.24-7.9 111.34-6.73 112.44-5.55 113.94-5.55L113.94-5.55Q115.54-5.55 116.61-6.7 117.69-7.85 117.69-9.55L117.69-9.55 117.69-12 114.19-12Q113.94-12 113.94-12.25L113.94-12.25 113.94-17.85Q113.94-18.1 114.19-18.1L114.19-18.1 123.54-18.1Q123.74-18.1 123.74-17.85L123.74-17.85 123.74-9.55Q123.74-6.75 122.41-4.48 121.09-2.2 118.89-0.85 116.69 0.5 113.94 0.5ZM143.88 0.5L143.88 0.5Q141.23 0.5 138.98-0.88 136.73-2.25 135.41-4.55 134.08-6.85 134.08-9.6L134.08-9.6 134.18-34.6Q134.18-34.8 134.38-34.8L134.38-34.8 139.98-34.8Q140.18-34.8 140.18-34.6L140.18-34.6 140.18-9.6Q140.18-7.9 141.26-6.73 142.33-5.55 143.88-5.55L143.88-5.55Q145.48-5.55 146.56-6.73 147.63-7.9 147.63-9.6L147.63-9.6 147.63-34.6Q147.63-34.8 147.83-34.8L147.83-34.8 153.43-34.8Q153.63-34.8 153.63-34.6L153.63-34.6 153.73-9.6Q153.73-6.8 152.41-4.5 151.08-2.2 148.86-0.85 146.63 0.5 143.88 0.5ZM163.58 0L157.93 0Q157.68 0 157.68-0.25L157.68-0.25 157.73-34.6Q157.73-34.8 157.93-34.8L157.93-34.8 163.53-34.8Q163.73-34.8 163.73-34.6L163.73-34.6 163.78-0.25Q163.78 0 163.58 0L163.58 0Z" opacity="1" transform="matrix(1,0,0,1,0,0)" fill="#35185a" class="undefined-text-1" data-fill-palette-color="secondary" id="text-1"></path></svg></g></svg></g></svg></g></svg></g><g transform="matrix(1,0,0,1,0,44.74268422086272)"><svg viewBox="0 0 226.58787071999998 118.91953881309966" height="118.91953881309966" width="226.58787071999998"><g><svg xmlns="http://www.w3.org/2000/svg" xmlns:xlink="http://www.w3.org/1999/xlink" version="1.1" x="0" y="0" viewBox="5 26.381999969482422 90.0009994506836 47.2349967956543" enable-background="new 0 0 100 100" xml:space="preserve" height="118.91953881309966" width="226.58787071999998" class="icon-icon-0" data-fill-palette-color="accent" id="icon-0"><path fill="none" d="M50.482 28.475c-0.03 0.03-0.071 0.048-0.106 0.072C50.411 28.522 50.452 28.505 50.482 28.475z"></path><path fill="none" d="M50.628 28.259c-0.021 0.052-0.06 0.093-0.093 0.138C50.568 28.352 50.606 28.311 50.628 28.259z"></path><path fill="none" d="M50.553 27.618c0.025 0.037 0.058 0.069 0.075 0.111C50.61 27.688 50.578 27.655 50.553 27.618z"></path><path fill="none" d="M50.266 28.621c-0.082 0.034-0.171 0.053-0.265 0.053C50.095 28.674 50.184 28.655 50.266 28.621z"></path><path fill="none" d="M50.001 28.674c-0.375 0-0.68-0.304-0.68-0.68s0.305-0.68 0.68-0.68c-0.376 0-0.681 0.304-0.681 0.68S49.625 28.674 50.001 28.674z"></path><path fill="none" d="M50.001 27.314c0.094 0 0.183 0.019 0.265 0.053C50.184 27.333 50.095 27.314 50.001 27.314z"></path><path fill="none" d="M50.376 27.442c0.036 0.024 0.076 0.041 0.106 0.071C50.452 27.483 50.412 27.466 50.376 27.442z"></path><path fill="none" d="M54.305 70.684c0.375 0 0.678 0.305 0.68 0.68C54.984 70.988 54.68 70.684 54.305 70.684z"></path><path d="M86.63 69.109c0.108-0.227 0.177-0.478 0.177-0.746V28.107c0-0.953-0.772-1.725-1.727-1.725H14.92c-0.953 0-1.724 0.772-1.724 1.725v40.256c0 0.269 0.066 0.52 0.176 0.746H5v2.783c0 0.953 0.773 1.725 1.726 1.725h86.549c0.953 0 1.726-0.771 1.726-1.725v-2.783H86.63zM50.001 27.314c0.094 0 0.183 0.019 0.265 0.053 0.042 0.018 0.074 0.049 0.11 0.075 0.036 0.024 0.076 0.041 0.106 0.071 0.03 0.03 0.047 0.07 0.071 0.105 0.025 0.037 0.058 0.069 0.075 0.111 0.034 0.081 0.054 0.171 0.054 0.265s-0.02 0.183-0.054 0.265c-0.021 0.052-0.06 0.093-0.093 0.138-0.02 0.025-0.031 0.056-0.053 0.078-0.03 0.03-0.071 0.048-0.106 0.072-0.037 0.025-0.069 0.057-0.11 0.074-0.082 0.034-0.171 0.053-0.265 0.053-0.376 0-0.681-0.304-0.681-0.68S49.625 27.314 50.001 27.314zM16.143 29.708h67.714v36.571H16.143V29.708zM54.305 72.046h-8.608c-0.375 0-0.68-0.305-0.68-0.683 0-0.375 0.305-0.68 0.68-0.68h8.608c0.375 0 0.68 0.305 0.68 0.68C54.984 71.741 54.68 72.046 54.305 72.046z" fill="#35185a" data-fill-palette-color="accent"></path><polygon points="25.039,48.313 25.039,49.536 25.039,49.537 44.878,49.537 44.878,49.536 44.878,48.313 44.878,48.312   25.039,48.312 " fill="#35185a" data-fill-palette-color="accent"></polygon><rect x="36.633" y="58.613" width="3.488" height="1.225" fill="#35185a" data-fill-palette-color="accent"></rect><rect x="46.552" y="48.313" width="3.488" height="1.224" fill="#35185a" data-fill-palette-color="accent"></rect><rect x="39.377" y="46.296" width="3.488" height="1.224" fill="#35185a" data-fill-palette-color="accent"></rect><rect x="20.692" y="31.829" width="3.489" height="1.224" fill="#35185a" data-fill-palette-color="accent"></rect><rect x="20.692" y="42.131" width="3.489" height="1.224" fill="#35185a" data-fill-palette-color="accent"></rect><rect x="20.692" y="46.296" width="3.489" height="1.224" fill="#35185a" data-fill-palette-color="accent"></rect><rect x="20.692" y="48.313" width="3.489" height="1.224" fill="#35185a" data-fill-palette-color="accent"></rect><rect x="20.692" y="44.191" width="5.832" height="1.224" fill="#35185a" data-fill-palette-color="accent"></rect><rect x="25.039" y="46.296" width="12.665" height="1.224" fill="#35185a" data-fill-palette-color="accent"></rect><rect x="20.692" y="50.373" width="3.489" height="1.223" fill="#35185a" data-fill-palette-color="accent"></rect><rect x="20.692" y="54.494" width="3.489" height="1.223" fill="#35185a" data-fill-palette-color="accent"></rect><rect x="53.637" y="50.373" width="3.488" height="1.223" fill="#35185a" data-fill-palette-color="accent"></rect><rect x="25.039" y="50.373" width="27.761" height="1.223" fill="#35185a" data-fill-palette-color="accent"></rect><rect x="20.692" y="52.434" width="27.792" height="1.223" fill="#35185a" data-fill-palette-color="accent"></rect><rect x="25.039" y="54.494" width="23.444" height="1.223" fill="#35185a" data-fill-palette-color="accent"></rect><rect x="20.692" y="56.555" width="17.012" height="1.223" fill="#35185a" data-fill-palette-color="accent"></rect><rect x="20.692" y="58.613" width="14.267" height="1.225" fill="#35185a" data-fill-palette-color="accent"></rect><rect x="20.692" y="60.674" width="7.134" height="1.225" fill="#35185a" data-fill-palette-color="accent"></rect><rect x="20.692" y="62.736" width="5.832" height="1.223" fill="#35185a" data-fill-palette-color="accent"></rect><rect x="20.692" y="33.89" width="8.694" height="1.224" fill="#35185a" data-fill-palette-color="accent"></rect><rect x="20.692" y="35.95" width="11.594" height="1.224" fill="#35185a" data-fill-palette-color="accent"></rect><rect x="20.692" y="38.01" width="8.694" height="1.224" fill="#35185a" data-fill-palette-color="accent"></rect><rect x="20.692" y="40.071" width="8.694" height="1.224" fill="#35185a" data-fill-palette-color="accent"></rect><rect x="18.798" y="31.829" width="1.058" height="1.224" fill="#35185a" data-fill-palette-color="accent"></rect><rect x="18.798" y="33.89" width="1.058" height="1.224" fill="#35185a" data-fill-palette-color="accent"></rect><rect x="18.798" y="35.95" width="1.058" height="1.224" fill="#35185a" data-fill-palette-color="accent"></rect><rect x="18.798" y="38.01" width="1.058" height="1.224" fill="#35185a" data-fill-palette-color="accent"></rect><rect x="18.798" y="40.071" width="1.058" height="1.224" fill="#35185a" data-fill-palette-color="accent"></rect><rect x="18.798" y="42.131" width="1.058" height="1.224" fill="#35185a" data-fill-palette-color="accent"></rect><rect x="18.798" y="44.191" width="1.058" height="1.224" fill="#35185a" data-fill-palette-color="accent"></rect><rect x="18.798" y="46.252" width="1.058" height="1.224" fill="#35185a" data-fill-palette-color="accent"></rect><rect x="18.798" y="48.313" width="1.058" height="1.224" fill="#35185a" data-fill-palette-color="accent"></rect><rect x="18.798" y="50.373" width="1.058" height="1.223" fill="#35185a" data-fill-palette-color="accent"></rect><rect x="18.798" y="52.434" width="1.058" height="1.223" fill="#35185a" data-fill-palette-color="accent"></rect><rect x="18.798" y="54.494" width="1.058" height="1.223" fill="#35185a" data-fill-palette-color="accent"></rect><rect x="18.798" y="56.555" width="1.058" height="1.223" fill="#35185a" data-fill-palette-color="accent"></rect><rect x="18.798" y="58.613" width="1.058" height="1.225" fill="#35185a" data-fill-palette-color="accent"></rect><rect x="18.798" y="60.674" width="1.058" height="1.225" fill="#35185a" data-fill-palette-color="accent"></rect><rect x="18.798" y="62.736" width="1.058" height="1.223" fill="#35185a" data-fill-palette-color="accent"></rect></svg></g></svg></g></svg></g></svg></g></svg></g><g><path d="M0 123.6c0-68.262 55.338-123.6 123.6-123.6 47.264 0 88.332 26.529 109.126 65.509h-3.129c-20.543-37.405-60.309-62.758-105.997-62.758-66.743 0-120.849 54.106-120.849 120.849 0 66.743 54.106 120.849 120.849 120.849 45.688 0 85.454-25.353 105.997-62.758l3.129 0c-20.793 38.98-61.862 65.509-109.126 65.509-68.262 0-123.6-55.338-123.6-123.6z" fill="#bb84e8" stroke="transparent" data-fill-palette-color="tertiary"></path></g></svg></g><defs></defs></svg><rect width="395.52" height="247.2" fill="none" stroke="none" visibility="hidden"></rect></g></svg></g></svg>